# xmcd
#
# Track frame offsets:
#	150
#	14560
#	29282
#	48220
#	49965
#	71925
#	74077
#	94850
#	114815
#	117072
#	138245
#
# Disc length: 1994 seconds
#
# Revision: 1
# Processed by: cddbd v1.5.1PL0 Copyright (c) Steve Scherf et al.
# Submitted via: CDex 1.50Beta5
#
DISCID=9b07c80b
DTITLE=Gemini - ジェミニ計画
DYEAR=2001
DGENRE=Pop
TTITLE0=Pussycat Disco
TTITLE1=ジェミニの落第ソルフェージュ
TTITLE2=ゴロツキストバー
TTITLE3=胸キュン!ジェロニモ学園第一話
TTITLE4=沖のニシン
TTITLE5=胸キュン!ジェロニモ学園第二話
TTITLE6=YASASHISA ロケット
TTITLE7=双子の美人秘書
TTITLE8=胸キュン!ジェロニモ学園第三話
TTITLE9=第二次成長KING
TTITLE10=始まりの光
EXTD=
EXTT0=
EXTT1=
EXTT2=
EXTT3=
EXTT4=
EXTT5=
EXTT6=
EXTT7=
EXTT8=
EXTT9=
EXTT10=
PLAYORDER=
